<svg width="26" height="27" viewBox="0 0 26 27" fill="none" xmlns="http://www.w3.org/2000/svg">
<path fill-rule="evenodd" clip-rule="evenodd" d="M5.22282 1.56488C4.44984 0.775841 3.18358 0.762823 2.39454 1.5358L0.782143 3.11538C-0.00689364 3.88836 -0.0199125 5.15462 0.753065 5.94366L6.71162 12.026C7.48459 12.815 7.47157 14.0813 6.68254 14.8543L0.6004 20.8126C-0.188637 21.5856 -0.201654 22.8519 0.571324 23.6409L2.15091 25.2533C2.92388 26.0423 4.19015 26.0554 4.97919 25.2824L11.0613 19.324C11.8504 18.5511 13.1166 18.5641 13.8896 19.3531L19.8478 25.4351C20.6208 26.2241 21.887 26.2371 22.6761 25.4642L24.2885 23.8846C25.0775 23.1116 25.0905 21.8453 24.3175 21.0563L18.3594 14.9743C17.5864 14.1853 17.5994 12.919 18.3884 12.1461L24.4706 6.18767C25.2596 5.41469 25.2727 4.14843 24.4997 3.35939L22.9201 1.74699C22.1471 0.957956 20.8809 0.944938 20.0918 1.71792L14.0096 7.6763C13.2206 8.44928 11.9543 8.43626 11.1814 7.64722L5.22282 1.56488Z"/>
</svg>
