<svg width="26" height="25" viewBox="0 0 26 25" fill="none" xmlns="http://www.w3.org/2000/svg">
<path fill-rule="evenodd" clip-rule="evenodd" d="M24.4592 3.54347C25.2549 2.76942 25.268 1.49537 24.4883 0.705129L24.38 0.595318C23.6081 -0.187 22.3496 -0.199938 21.5618 0.566346L13.9132 8.00606C13.1253 8.7725 11.8664 8.75938 11.0946 7.97667L3.85677 0.636666C3.0848 -0.146198 1.82567 -0.159144 1.03777 0.607684L0.927207 0.715287C0.131978 1.48925 0.118886 2.76266 0.898035 3.55281L8.09746 10.8538C8.87677 11.6441 8.86349 12.9179 8.06787 13.6918L0.6055 20.9503C-0.190279 21.7244 -0.203377 22.9984 0.576319 23.7887L0.684664 23.8985C1.45654 24.6808 2.71505 24.6937 3.50285 23.9275L11.0044 16.6308C11.7923 15.8643 13.0512 15.8775 13.823 16.6602L21.4248 24.3693C22.1968 25.1522 23.4559 25.1651 24.2438 24.3983L24.3544 24.2907C25.1496 23.5167 25.1627 22.2433 24.3836 21.4532L16.8201 13.783C16.0408 12.9927 16.0541 11.719 16.8497 10.9451L24.4592 3.54347Z"/>
</svg>
