<svg width="25" height="21" viewBox="0 0 25 21" fill="none" xmlns="http://www.w3.org/2000/svg">
<path fill-rule="evenodd" clip-rule="evenodd" d="M6.11475 0.313811C6.53317 0.732225 6.53317 1.41063 6.11475 1.82904L3.65808 4.28571H16.7857C21.3223 4.28571 25 7.96337 25 12.5C25 17.0366 21.3223 20.7143 16.7857 20.7143H6.78573C6.19398 20.7143 5.7143 20.2346 5.7143 19.6429C5.7143 19.0511 6.19398 18.5714 6.78573 18.5714H16.7857C20.1389 18.5714 22.8571 15.8531 22.8571 12.5C22.8571 9.14684 20.1389 6.42857 16.7857 6.42857H3.65808L6.11475 8.88524C6.53317 9.30366 6.53317 9.982 6.11475 10.4004C5.69634 10.8189 5.01794 10.8189 4.59952 10.4004L0.313811 6.11476C-0.104604 5.69634 -0.104604 5.01794 0.313811 4.59953L4.59952 0.313811C5.01794 -0.104604 5.69634 -0.104604 6.11475 0.313811Z"/>
</svg>
