<svg width="30" height="31" viewBox="0 0 30 31" fill="none" xmlns="http://www.w3.org/2000/svg">
<path fill-rule="evenodd" clip-rule="evenodd" d="M7.51239 13.7214C6.8291 12.8535 5.57165 12.7039 4.70378 13.3872L3.22889 14.5484C2.36102 15.2317 2.21138 16.4891 2.89467 17.357L8.4349 24.3939C9.11818 25.2618 10.3756 25.4114 11.2435 24.7281L14.2783 22.3388C14.2847 22.3338 14.2858 22.3246 14.2808 22.3182C14.2757 22.3119 14.2768 22.3026 14.2832 22.2976L28.1325 11.3939C29.0004 10.7106 29.15 9.45318 28.4667 8.58531L27.5818 7.46136C26.8985 6.59349 25.6411 6.44385 24.7732 7.12714L12.4838 16.8027C11.6159 17.486 10.3585 17.3364 9.6752 16.4685L7.51239 13.7214Z"/>
</svg>
