<svg width="25" height="27" viewBox="0 0 25 27" fill="none" xmlns="http://www.w3.org/2000/svg">
<path fill-rule="evenodd" clip-rule="evenodd" d="M5.35068 12.3947C4.66739 11.5268 3.40993 11.3772 2.54207 12.0605L1.57142 12.8247C0.703547 13.508 0.553912 14.7654 1.2372 15.6333L5.90226 21.5586C6.58554 22.4265 7.843 22.5761 8.71087 21.8928L11.2426 19.8995C11.2483 19.8951 11.2493 19.8868 11.2448 19.8811C11.2404 19.8755 11.2413 19.8672 11.247 19.8628L23.4124 10.2848C24.2803 9.60154 24.4299 8.34408 23.7466 7.47621L23.2285 6.81817C22.5453 5.9503 21.2878 5.80067 20.4199 6.48395L9.81568 14.8328C8.94781 15.5161 7.69036 15.3664 7.00707 14.4986L5.35068 12.3947Z"/>
</svg>
